<svg viewBox="0 0 1784.8333740234375 400" xmlns="http://www.w3.org/2000/svg"><g><g><g><g><g><line x1="72.1240005493164" y1="377" x2="67.1240005493164" y2="377" style="visibility: inherit;" fill="rgb(0, 0, 0)" stroke="rgb(204, 204, 204)" stroke-width="1px"></line><line x1="72.1240005493164" y1="348" x2="67.1240005493164" y2="348" style="visibility: inherit;" fill="rgb(0, 0, 0)" stroke="rgb(204, 204, 204)" stroke-width="1px"></line><line x1="72.1240005493164" y1="319" x2="67.1240005493164" y2="319" style="visibility: inherit;" fill="rgb(0, 0, 0)" stroke="rgb(204, 204, 204)" stroke-width="1px"></line><line x1="72.1240005493164" y1="290" x2="67.1240005493164" y2="290" style="visibility: inherit;" fill="rgb(0, 0, 0)" stroke="rgb(204, 204, 204)" stroke-width="1px"></line><line x1="72.1240005493164" y1="261" x2="67.1240005493164" y2="261" style="visibility: inherit;" fill="rgb(0, 0, 0)" stroke="rgb(204, 204, 204)" stroke-width="1px"></line><line x1="72.1240005493164" y1="232" x2="67.1240005493164" y2="232" style="visibility: inherit;" fill="rgb(0, 0, 0)" stroke="rgb(204, 204, 204)" stroke-width="1px"></line><line x1="72.1240005493164" y1="203" x2="67.1240005493164" y2="203" style="visibility: inherit;" fill="rgb(0, 0, 0)" stroke="rgb(204, 204, 204)" stroke-width="1px"></line><line x1="72.1240005493164" y1="174" x2="67.1240005493164" y2="174" style="visibility: inherit;" fill="rgb(0, 0, 0)" stroke="rgb(204, 204, 204)" stroke-width="1px"></line><line x1="72.1240005493164" y1="145" x2="67.1240005493164" y2="145" style="visibility: inherit;" fill="rgb(0, 0, 0)" stroke="rgb(204, 204, 204)" stroke-width="1px"></line><line x1="72.1240005493164" y1="116" x2="67.1240005493164" y2="116" style="visibility: inherit;" fill="rgb(0, 0, 0)" stroke="rgb(204, 204, 204)" stroke-width="1px"></line><line x1="72.1240005493164" y1="86.99999999999999" x2="67.1240005493164" y2="86.99999999999999" style="visibility: inherit;" fill="rgb(0, 0, 0)" stroke="rgb(204, 204, 204)" stroke-width="1px"></line><line x1="72.1240005493164" y1="58" x2="67.1240005493164" y2="58" style="visibility: inherit;" fill="rgb(0, 0, 0)" stroke="rgb(204, 204, 204)" stroke-width="1px"></line><line x1="72.1240005493164" y1="28.999999999999982" x2="67.1240005493164" y2="28.999999999999982" style="visibility: inherit;" fill="rgb(0, 0, 0)" stroke="rgb(204, 204, 204)" stroke-width="1px"></line><line x1="72.1240005493164" y1="0" x2="67.1240005493164" y2="0" style="visibility: inherit;" fill="rgb(0, 0, 0)" stroke="rgb(204, 204, 204)" stroke-width="1px"></line></g><g transform="translate(62.124000549316406, 0)"><text style="text-anchor: end; visibility: hidden; font-family: Roboto, sans-serif; font-size: 12px; font-weight: 200;" x="0" y="377" dx="0em" dy="0.3em" fill="rgb(33, 33, 33)" stroke="none" stroke-width="1px">0</text><text style="text-anchor: end; visibility: inherit; font-family: Roboto, sans-serif; font-size: 12px; font-weight: 200;" x="0" y="348" dx="0em" dy="0.3em" fill="rgb(33, 33, 33)" stroke="none" stroke-width="1px">500</text><text style="text-anchor: end; visibility: inherit; font-family: Roboto, sans-serif; font-size: 12px; font-weight: 200;" x="0" y="319" dx="0em" dy="0.3em" fill="rgb(33, 33, 33)" stroke="none" stroke-width="1px">1e+3</text><text style="text-anchor: end; visibility: inherit; font-family: Roboto, sans-serif; font-size: 12px; font-weight: 200;" x="0" y="290" dx="0em" dy="0.3em" fill="rgb(33, 33, 33)" stroke="none" stroke-width="1px">1.5e+3</text><text style="text-anchor: end; visibility: inherit; font-family: Roboto, sans-serif; font-size: 12px; font-weight: 200;" x="0" y="261" dx="0em" dy="0.3em" fill="rgb(33, 33, 33)" stroke="none" stroke-width="1px">2e+3</text><text style="text-anchor: end; visibility: inherit; font-family: Roboto, sans-serif; font-size: 12px; font-weight: 200;" x="0" y="232" dx="0em" dy="0.3em" fill="rgb(33, 33, 33)" stroke="none" stroke-width="1px">2.5e+3</text><text style="text-anchor: end; visibility: inherit; font-family: Roboto, sans-serif; font-size: 12px; font-weight: 200;" x="0" y="203" dx="0em" dy="0.3em" fill="rgb(33, 33, 33)" stroke="none" stroke-width="1px">3e+3</text><text style="text-anchor: end; visibility: inherit; font-family: Roboto, sans-serif; font-size: 12px; font-weight: 200;" x="0" y="174" dx="0em" dy="0.3em" fill="rgb(33, 33, 33)" stroke="none" stroke-width="1px">3.5e+3</text><text style="text-anchor: end; visibility: inherit; font-family: Roboto, sans-serif; font-size: 12px; font-weight: 200;" x="0" y="145" dx="0em" dy="0.3em" fill="rgb(33, 33, 33)" stroke="none" stroke-width="1px">4e+3</text><text style="text-anchor: end; visibility: inherit; font-family: Roboto, sans-serif; font-size: 12px; font-weight: 200;" x="0" y="116" dx="0em" dy="0.3em" fill="rgb(33, 33, 33)" stroke="none" stroke-width="1px">4.5e+3</text><text style="text-anchor: end; visibility: inherit; font-family: Roboto, sans-serif; font-size: 12px; font-weight: 200;" x="0" y="86.99999999999999" dx="0em" dy="0.3em" fill="rgb(33, 33, 33)" stroke="none" stroke-width="1px">5e+3</text><text style="text-anchor: end; visibility: inherit; font-family: Roboto, sans-serif; font-size: 12px; font-weight: 200;" x="0" y="58" dx="0em" dy="0.3em" fill="rgb(33, 33, 33)" stroke="none" stroke-width="1px">5.5e+3</text><text style="text-anchor: end; visibility: inherit; font-family: Roboto, sans-serif; font-size: 12px; font-weight: 200;" x="0" y="28.999999999999982" dx="0em" dy="0.3em" fill="rgb(33, 33, 33)" stroke="none" stroke-width="1px">6e+3</text><text style="text-anchor: end; visibility: hidden; font-family: Roboto, sans-serif; font-size: 12px; font-weight: 200;" x="0" y="0" dx="0em" dy="0.3em" fill="rgb(33, 33, 33)" stroke="none" stroke-width="1px">6.5e+3</text></g><line x1="72.1240005493164" y1="0" x2="72.1240005493164" y2="377" fill="rgb(0, 0, 0)" stroke="rgb(204, 204, 204)" stroke-width="1px"></line></g></g><g transform="translate(72, 0)" clip-path="url(#clip_0)"><clipPath id="clip_0"><rect width="1712" height="377"></rect></clipPath><g><g><g><line x1="0" y1="0" x2="0" y2="377" fill="rgb(0, 0, 0)" stroke="rgb(66, 66, 66)" stroke-width="1px" opacity="0.25"></line><line x1="122.33614281790597" y1="0" x2="122.33614281790597" y2="377" fill="rgb(0, 0, 0)" stroke="rgb(66, 66, 66)" stroke-width="1px" opacity="0.25"></line><line x1="244.67228563581193" y1="0" x2="244.67228563581193" y2="377" fill="rgb(0, 0, 0)" stroke="rgb(66, 66, 66)" stroke-width="1px" opacity="0.25"></line><line x1="367.0084284537179" y1="0" x2="367.0084284537179" y2="377" fill="rgb(0, 0, 0)" stroke="rgb(66, 66, 66)" stroke-width="1px" opacity="0.25"></line><line x1="489.34457127162386" y1="0" x2="489.34457127162386" y2="377" fill="rgb(0, 0, 0)" stroke="rgb(66, 66, 66)" stroke-width="1px" opacity="0.25"></line><line x1="611.6807140895298" y1="0" x2="611.6807140895298" y2="377" fill="rgb(0, 0, 0)" stroke="rgb(66, 66, 66)" stroke-width="1px" opacity="0.25"></line><line x1="734.0168569074358" y1="0" x2="734.0168569074358" y2="377" fill="rgb(0, 0, 0)" stroke="rgb(66, 66, 66)" stroke-width="1px" opacity="0.25"></line><line x1="856.3529997253418" y1="0" x2="856.3529997253418" y2="377" fill="rgb(0, 0, 0)" stroke="rgb(66, 66, 66)" stroke-width="1px" opacity="0.25"></line><line x1="978.6891425432477" y1="0" x2="978.6891425432477" y2="377" fill="rgb(0, 0, 0)" stroke="rgb(66, 66, 66)" stroke-width="1px" opacity="0.25"></line><line x1="1101.0252853611537" y1="0" x2="1101.0252853611537" y2="377" fill="rgb(0, 0, 0)" stroke="rgb(66, 66, 66)" stroke-width="1px" opacity="0.25"></line><line x1="1223.3614281790597" y1="0" x2="1223.3614281790597" y2="377" fill="rgb(0, 0, 0)" stroke="rgb(66, 66, 66)" stroke-width="1px" opacity="0.25"></line><line x1="1345.6975709969656" y1="0" x2="1345.6975709969656" y2="377" fill="rgb(0, 0, 0)" stroke="rgb(66, 66, 66)" stroke-width="1px" opacity="0.25"></line><line x1="1468.0337138148716" y1="0" x2="1468.0337138148716" y2="377" fill="rgb(0, 0, 0)" stroke="rgb(66, 66, 66)" stroke-width="1px" opacity="0.25"></line><line x1="1590.3698566327776" y1="0" x2="1590.3698566327776" y2="377" fill="rgb(0, 0, 0)" stroke="rgb(66, 66, 66)" stroke-width="1px" opacity="0.25"></line><line x1="1712.7059994506835" y1="0" x2="1712.7059994506835" y2="377" fill="rgb(0, 0, 0)" stroke="rgb(66, 66, 66)" stroke-width="1px" opacity="0.25"></line></g><g><line x1="0" y1="377" x2="1712.7059994506835" y2="377" fill="rgb(0, 0, 0)" stroke="rgb(66, 66, 66)" stroke-width="1px" opacity="0.25"></line><line x1="0" y1="348" x2="1712.7059994506835" y2="348" fill="rgb(0, 0, 0)" stroke="rgb(66, 66, 66)" stroke-width="1px" opacity="0.25"></line><line x1="0" y1="319" x2="1712.7059994506835" y2="319" fill="rgb(0, 0, 0)" stroke="rgb(66, 66, 66)" stroke-width="1px" opacity="0.25"></line><line x1="0" y1="290" x2="1712.7059994506835" y2="290" fill="rgb(0, 0, 0)" stroke="rgb(66, 66, 66)" stroke-width="1px" opacity="0.25"></line><line x1="0" y1="261" x2="1712.7059994506835" y2="261" fill="rgb(0, 0, 0)" stroke="rgb(66, 66, 66)" stroke-width="1px" opacity="0.25"></line><line x1="0" y1="232" x2="1712.7059994506835" y2="232" fill="rgb(0, 0, 0)" stroke="rgb(66, 66, 66)" stroke-width="1px" opacity="0.25"></line><line x1="0" y1="203" x2="1712.7059994506835" y2="203" fill="rgb(0, 0, 0)" stroke="rgb(66, 66, 66)" stroke-width="1px" opacity="0.25"></line><line x1="0" y1="174" x2="1712.7059994506835" y2="174" fill="rgb(0, 0, 0)" stroke="rgb(66, 66, 66)" stroke-width="1px" opacity="0.25"></line><line x1="0" y1="145" x2="1712.7059994506835" y2="145" fill="rgb(0, 0, 0)" stroke="rgb(66, 66, 66)" stroke-width="1px" opacity="0.25"></line><line x1="0" y1="116" x2="1712.7059994506835" y2="116" fill="rgb(0, 0, 0)" stroke="rgb(66, 66, 66)" stroke-width="1px" opacity="0.25"></line><line x1="0" y1="86.99999999999999" x2="1712.7059994506835" y2="86.99999999999999" fill="rgb(0, 0, 0)" stroke="rgb(66, 66, 66)" stroke-width="1px" opacity="0.25"></line><line x1="0" y1="58" x2="1712.7059994506835" y2="58" fill="rgb(0, 0, 0)" stroke="rgb(66, 66, 66)" stroke-width="1px" opacity="0.25"></line><line x1="0" y1="28.999999999999982" x2="1712.7059994506835" y2="28.999999999999982" fill="rgb(0, 0, 0)" stroke="rgb(66, 66, 66)" stroke-width="1px" opacity="0.25"></line><line x1="0" y1="0" x2="1712.7059994506835" y2="0" fill="rgb(0, 0, 0)" stroke="rgb(66, 66, 66)" stroke-width="1px" opacity="0.25"></line></g></g></g><g><g><line x1="0" y1="377" x2="1712.7059994506835" y2="377" fill="rgb(0, 0, 0)" stroke="rgb(153, 153, 153)" stroke-width="1.5px"></line></g></g><g><g><line x1="122.33614281790597" y1="0" x2="122.33614281790597" y2="377" fill="rgb(0, 0, 0)" stroke="rgb(153, 153, 153)" stroke-width="1.5px"></line></g></g><g><g><g><g><g><path style="fill: none;" stroke="rgb(0, 153, 136)" stroke-width="2px" d="M124.34000883726327,360.7292494506836L124.8409753421026,356.1519114608765L127.84677437113854,351.0335253246074L129.85064039049584,347.34737244796753L130.35160689533515,344.54741747602134L131.85450640985314,344.0096594302119L132.35547291469248,343.0467247574948L132.8564394195318,342.24671484993166L133.85837242921042,342.4817573625735L134.35933893404976,343.2044697934043L135.86223844856772,342.8052976561239L136.36320495340706,341.6454872885625L141.87383650663963,342.06621007919153L142.8757695163183,340.90698154377884L146.38253505019358,339.80632102159166L146.88350155503286,340.3735231347176L147.3844680598722,341.0839157183608L148.38640106955086,340.8257110007253L149.88930058406885,338.12401929443837L151.3922000985868,340.74444249090874L152.89509961310478,340.6509422031997L153.3960661179441,340.0222288240309L153.89703262278343,338.4551201821599L154.39799912762277,337.20411681633055L155.39993213730142,335.13076507410585L155.90089864214073,337.4532144709816L156.40186514698007,334.28514541080386L156.90283165181938,336.34926268396674L157.90476466149804,335.41562435621864L158.40573116633738,334.0659829579388L161.4115301953733,332.71469970294504L162.41346320505195,330.0728190255712L163.91636271956995,334.10018789672L165.4192622340879,332.43831547362055L167.4231282534452,331.6245717408866L172.43279330183844,332.14781096985075L174.43665932119575,329.9916242638791L175.93955883571374,329.6598343227204L176.44052534055305,333.417675846145L177.4424583502317,331.6909710327226L180.94922388410697,332.88822427098444L183.45405640830361,330.79380277447336L185.4579224276609,333.57267829634577L185.95888893250023,335.7912655719418L186.96082194217888,333.0587787764748L187.96275495185753,330.0026197071005L188.46372145669685,331.5834123028351L190.9685539808935,328.3382358093626L191.4695204857328,327.0887059387257L194.9762860196081,328.8622131628592L195.97821902928675,327.2608535813015L196.47918553412606,326.45929427768476L197.98208504864402,327.53710444747213L201.48885058251932,325.65886335207506L202.99175009703728,324.46670409522864L203.9936831067159,319.9957088829168L204.99561611639456,323.3156005738914L208.00141514543054,324.2547152271475L208.50238165026985,323.38088851128845L209.0033481551092,322.44973720833553L211.5081806793058,325.4014171296889L213.5120466986631,324.2207546723446L215.01494621318108,323.95752277410986L215.51591271802042,323.9527030687628L216.01687922285973,323.71455724164827L218.02074524221703,322.6202318547546L218.52171174705637,312.49942006988397L219.0226782518957,314.94771214935224L222.52944378577095,319.00521635211135L224.03234330028891,318.3868175065793L224.53330980512825,318.863579322307L225.03427630996757,317.17204739807164L225.5352428148069,319.67706696423363L226.53717582448556,322.8759004324465L228.54104184384286,323.8812686286085L229.5429748535215,321.3675233841963L230.54490786320017,324.3061331223147L232.54877388255744,323.1499066312013L233.04974038739675,326.5269168791114L233.5507068922361,324.68521829152934L235.05360640675406,326.34025431476135L237.5584389309507,325.64941103612244L242.56810397934396,321.29041087948593L243.5700369890226,321.8475173284728L245.07293650354055,321.5697721646618L245.5739030083799,322.2767274101252L246.0748695132192,324.14873546951264L250.0826015519338,317.7298446020201L252.08646757129114,319.4144047592589L252.58743407613045,315.56303172274283L253.0884005809698,313.37975409223947L258.59903213420233,313.8197477678437L260.1019316487203,313.61704504742494L261.10386465839895,318.2385291768925L262.1057976680776,317.06367570926045L263.10773067775625,315.475019781025L264.10966368743493,313.2890175326775L264.61063019227424,311.977416183669L265.6125632019529,312.33028847973264L267.11546271647086,315.91413412299585L268.11739572614954,317.87572485856316L270.6222282503461,321.739818167091L271.12319475518547,319.9897766424421L271.6241612600248,314.00049098546526L272.1251277648641,308.9381800404979L276.1328598035787,314.794906559455L277.1347928132574,307.8598374903605L279.1386588326147,314.5727708535913L281.142524851972,317.3140651000454L282.14445786165066,314.55847538815226L282.64542436649,315.65279226414134L284.1483238810079,316.5070964034067L291.6628214535978,320.02205964868466L292.1637879584371,321.89335512514833L294.66862048263374,317.1392965711827L295.6705534923124,315.6351801888034L296.1715199971517,316.8495135332039L299.17731902618766,304.4590048972661L300.1792520358663,310.1925192957815L302.1831180552236,311.28305728059394L304.18698407458095,307.8696288019501L304.68795057942026,305.8215717147638L305.1889170842596,310.5249791616708L305.6898835890989,313.347023629815L306.19085009393825,315.017203240389L306.69181659877756,316.26453942470215L312.2024481520101,317.98737795169626L316.2101801907247,313.48048663429904L318.214046210082,307.8377427618294L319.2159792197607,305.3836053250664L320.2179122294393,310.17995147628983L321.72081174395726,310.91378406936764L324.22564426815387,315.0435562326362L325.22757727783255,318.45832768489424L327.73240980202917,310.26818547812405L329.73627582138647,309.83077407984314L330.23724232622584,312.5167351510309L330.73820883106515,314.323931520306L332.24110834558314,314.0630571543711L333.74400786010114,315.0755072418414L334.2449743649404,315.0124117669799L335.7478738794584,317.01890296839105L336.2488403842977,318.3956238122846L338.252706403655,311.63442370143326L340.7575389278516,314.15019113492247L341.258505432691,311.3943774739222L341.7594719375303,310.2536908398221L342.7614049472089,308.9893185077995L343.7633379568876,312.1744147374922L344.7652709665663,313.96029386202656L345.2662374714056,311.2460016101847L346.2681704810842,312.3515683489233L348.2720365004415,311.965510540604L349.27396951012014,310.20182907826864L351.27783552947744,311.7577549664924L353.28170154883475,306.63166704239546L353.78266805367406,310.15159133871856L355.7865340730314,303.4531561704186L356.28750057787073,295.6833953624074L357.28943358754935,301.9805199322882L358.29136659722803,306.6058835414041L360.2952326165853,309.68233354281125L360.7961991214246,314.78879333857736L362.2990986359426,313.83478860080265L363.30103164562126,296.34558976204414L363.8019981504606,285.852070458789L364.8039311601392,290.9401354393359L365.30489766497857,302.06883722063276L366.80779717949656,300.41543162925467L367.3087636843359,299.4233882744278L367.8097301891752,299.84462642168796L368.81166319885386,306.440700169419L370.3145627133718,304.8161417813389L372.3184287327291,309.5913704203658L374.3222947520864,308.16568856081324L374.8232612569257,310.8742604997692L377.8290602859617,309.2767616709553L378.330026790801,308.3182623736669L378.8309932956403,308.2031243187314L379.33195980047964,296.87708259905133L379.832926305319,290.0814575672433L380.3338928101583,301.74237546808035L381.8367923246763,308.84237464608265L382.3377588295156,313.10237415288395L382.83872533435493,310.65661160110534L389.85225640210547,309.2704333669132L390.3532229069448,308.8274821881167L391.35515591662346,306.872135797245L391.85612242146277,308.4564144861595L392.3570889263021,305.82840152372694L393.35902193598076,308.0347372032987L394.3609549456594,300.3924352907292L395.36288795533807,306.2436755299063L396.36482096501675,307.975751118725L396.86578746985606,309.99406365951626L398.368686984374,310.78276983633475L399.3706199940526,307.7600577025821L400.8735195085706,308.02824526608055L401.3744860134099,309.70598524558585L404.3802850424459,307.30679446766396L404.8812515472852,305.4847717001296L405.38221805212453,304.39155803960904L407.3860840714819,308.6331407807967L408.8889835859998,308.075937202853L409.8909165956785,307.8396713060868L411.39381611019644,306.21565776412086L413.39768212955374,307.9815485647225L415.40154814891105,308.82646038883354L415.90251465375036,305.73486148720633L417.40541416826835,298.89533173607384L418.40734717794703,300.1533343932068L418.90831368278634,301.9348209484241L420.41121319730433,306.81939071358573L421.41314620698296,308.59095102971395L422.41507921666164,306.99101319595337L422.91604572150095,306.031050495697L424.4189452360189,301.4413595942932L424.9199117408582,303.8306723972009L427.4247442650548,306.78486261800805L429.9295767892514,306.74820155517983L430.4305432940908,301.7611670268579L431.4324763037695,302.7132521692397L433.4363423231268,302.17933137966884L434.4382753328054,302.4609101559263L434.9392418376447,306.2770945310558L436.4421413521627,307.2107351366022L437.4440743618414,304.7089612968051L437.94504086668064,303.4122223835518L439.94890688603795,305.35222669184986L441.95277290539525,298.4605815229224L443.4556724199132,301.7508150270347L443.95663892475255,305.69754419200206L444.45760542959187,302.851704542545L444.95857193443123,301.14420075287074L445.4595384392705,297.36881908453495L447.9643709634672,302.6928249468147L448.96630397314584,297.9077708469951L449.4672704779851,304.1994016683533L450.4692034876638,309.40553582523074L450.97016999250314,310.4819777451384L452.4730695070211,302.9064788345831L453.47500251669976,304.4880213827811L456.981768050575,303.78917484138736L458.484667565093,302.8647061743637L460.9895000892896,303.63032360696195L461.490466594129,307.1057761954272L463.4943326134863,307.0023916938188L464.9972321280042,306.87070152019754L465.4981986328436,301.84836270899353L467.0010981473615,304.2818164535211L469.5059306715581,295.4161356728939L470.50786368123676,299.0573590404551L471.50979669091544,302.4720612250543L472.0107631957548,304.5208825358138L473.01269620543343,302.30960286133205L474.51559571995136,302.005458884768L475.01656222479073,301.82297249882953L476.0184952344694,302.4945548860165L478.52332775866597,301.7173260956724L479.52526076834465,303.03998862615344L481.0281602828626,297.3116957147546L482.0300932925412,297.8393598116652L483.53299280705926,302.00736217606163L484.0339593118985,302.22106613376195L485.0358923215772,298.85648489510095L486.0378253312558,299.3588613472168L486.5387918360952,300.52369424973637L487.54072484577387,300.42455590531057L488.0416913506131,301.90179819162387L489.0436243602918,304.9479015712243L489.54459086513117,306.33743986851584L490.0455573699704,306.5655046437658L492.55038989416715,291.7353783721969L494.55425591352434,293.93051061706814L495.556188923203,295.7417057843034L501.56778698127493,297.2962942713633L502.56971999095356,302.303521875318L505.57551901998954,299.2923238673783L506.0764855248288,297.76735535558316L507.57938503934685,292.7950250297562L508.0803515441861,289.8116268342599L509.58325105870415,289.83831047555594L511.0861505732221,296.63028960564606L511.58711707806145,298.47955716182514L512.5890500877401,294.86144084006384L513.0900165925794,292.6905710470071L513.5909830974188,292.90898872195424L514.0919496022581,293.04003932692257L514.5929161070974,290.15585240474724L517.5987151361334,292.1733183764421L519.1016146506513,292.37551270555275L525.6141792135625,296.9970600647379L526.1151457184019,292.4813199255615L526.6161122232412,287.46975728736817L527.1170787280805,284.4628197044521L528.6199782425984,284.11095393204624L532.627710281313,292.85427548422774L533.1286767861524,288.3723175366304L537.136408824867,292.5373239204157L537.6373753297064,289.76290148115567L539.6412413490636,286.4680770215059L540.142207853903,287.39945187696605L541.1441408635816,289.8587283527421L541.645107368421,289.60847988273906L543.148006882939,292.56754144526843L543.6489733877783,292.7891193007548L545.1518729022962,293.9283490218591L546.1538059119748,288.8680630263967L548.6586384361715,292.13807453458804L549.1596049410108,283.0858899355966L550.6625044555287,290.7832133558892L552.1654039700468,294.167354380721L553.6683034845647,295.1921563784326L554.6702364942433,288.84158308487207L556.1731360087614,285.1582811985795L556.6741025136007,289.2370690121164L558.677968532958,290.8454204111761L559.1789350377973,291.81043125061194L565.6914996007085,290.5795460550546L566.6934326103872,288.1429544885015L568.6972986297445,283.7749135134134L569.699231639423,288.0671536744543L571.2021311539411,277.57037677498505L572.2040641636198,271.7133598540535L572.705030668459,268.1991497014946L574.2079301829771,278.9607924576155L574.7088966878164,286.18354520113184L577.213729212013,288.3906019253666L577.7146957168524,290.4349082255324L578.716628726531,287.27491349000695L579.2175952313703,285.3789166486917L580.7204947458882,293.79635409077747L582.7243607652456,284.1875940950915L583.2253272700849,290.28778721877364L584.2272602797635,286.9061763351704L587.7340258136388,285.192624453446L588.7359588233174,272.8153688126926L589.2369253281568,281.7255820298031L589.7378918329962,280.1388436514756L591.2407913475141,284.8677533588541L593.2446573668714,284.2814141246875L594.2465903765501,280.3252164435625L594.7475568813894,276.75375818644994L596.2504563959073,277.44812541968247L598.2543224152647,284.98230581821576L599.7572219297826,269.81302899874197L601.2601214443006,274.6463622234639L603.7649539684973,285.46071420907833L605.2678534830152,285.75646319341575L606.2697864926939,282.1788317246432L607.2717195023725,283.3266358511922L607.7726860072119,284.0153183271216L612.7823510556051,280.9948032033042L613.2833175604444,280.03358182432623L614.7862170749625,279.66493249303323L616.7900830943197,280.8900442614449L618.7939491136771,277.04598583421074L619.7958821233557,278.1447964809951L620.7978151330342,285.72165054484714L621.7997481427129,279.05599765112703L622.8016811523916,276.2359458563012L623.3026476572309,275.9240145840932L624.8055471717488,280.93749605514347L625.3065136765882,280.77562155886733L625.8074801814275,280.6784968611017L626.8094131911062,279.9585915736923L629.3142457153028,284.29726734655907L630.3161787249815,277.4867669509042L631.3181117346601,277.086080678355L634.8248772685354,280.09119938357554L636.8287432878927,280.00723437623907L637.8306762975714,286.9839603523059L638.3316428024107,288.8204663481023L641.3374418314465,275.3515493401114L641.838408336286,267.27019913531683L642.3393748411253,275.7827283679089L642.8403413459646,280.39140342699534L643.3413078508039,283.1566084624472L645.3451738701611,281.90974173762453L646.8480733846791,280.4069165269497L651.8577384330724,269.53542354898235L652.859671442751,272.7157011997019L653.3606379475904,274.6238677901336L653.8616044524297,278.5762481154864L654.8635374621083,284.74087064663564L656.3664369766263,283.19863332548135L657.3683699863051,285.7052285304451L658.3703029959837,284.2072042081108L658.871269500823,282.6784354154915L659.3722360056622,273.0645895696074L659.8732025105016,267.29628206207695L660.374169015341,270.88082490130864L660.8751355201803,276.809856952504L662.3780350346982,285.8523033316586L663.8809345492162,282.19576412790144L664.8828675588949,286.4614376759596L666.3857670734128,271.53835323057575L666.8867335782522,262.58450256334544L667.3877000830914,257.2121921630073L669.3915661024488,268.48409342280434L672.898331636324,269.0438226552451L673.9002646460027,266.6529436908033L674.9021976556813,274.482270901982L675.4031641605208,280.9129004318142L675.90413066536,273.4565968020573L677.407030179878,270.80658327654686L678.4089631895566,273.00946646983436L679.4108961992354,273.75969531158813L679.9118627040746,274.20983261664037L680.9137957137533,277.2057733981092L683.41862823795,276.2846699958968L684.4205612476285,275.4097737748818L684.9215277524679,255.3934007883666L686.4244272669858,255.0354371527075L686.9253937718252,254.82065897131196L687.9273267815038,254.6471649140372L688.4282932863431,254.5430684796723L689.9311928008611,261.5587799549909L690.9331258105398,271.0422108440883L691.9350588202184,263.7572134205155L693.4379583347363,265.6891695562155L696.9447238686116,267.4658251712293L697.9466568782902,267.0126773293001L698.9485898879689,273.41753452258L699.4495563928083,268.8622159283918L699.9505228976476,264.60913307266003L703.9582549363622,261.34361714828356L704.9601879460408,262.74318728115765L705.9621209557195,267.2046357085383L707.4650204702375,272.0146105266855L710.4708194992734,271.6585313550738L710.9717860041128,271.22400523882555L711.9737190137914,274.6481672057953L712.4746855186307,266.6453454406647L712.97565202347,261.84365238158637L714.9795180428274,262.3262287336393L715.981451052506,259.5550057948711L716.9833840621847,262.4789590433289L718.4862835767026,262.3062130236536L718.987250081542,268.1139831852859L720.49014959606,264.3261872744528L720.9911161008993,263.8181483998279L722.4940156154172,253.40433005552177L726.5017476541318,256.2557547715943L727.0027141589711,261.5280304996753L727.5036806638105,264.47613890527396L730.5094796928464,265.40129369472686L731.0104461976857,265.9563865683986L733.0143122170431,257.98098194103915L735.5191447412396,244.34804873493601L736.5210777509183,249.90972357689913L738.5249437702756,252.66814449770197L740.0278432847937,230.95257849549617L743.0336423138295,223.08458752698522L744.0355753235083,218.36379294587866L746.0394413428655,240.60440467377717L747.0413743525442,254.04853001129757L748.5442738670621,254.7378781630285L749.0452403719014,241.63691498375462L749.5462068767408,233.77633707619023L750.04717338158,245.01846660118292L751.0491063912588,253.56883855445975L752.0510394009374,255.72329922642587L752.5520059057767,259.7890893014805L754.0549054202946,261.47051637385704L754.555871925134,262.479372617283L757.56167095417,249.18861419536984L759.5655369735273,248.50240855628434L762.070369497724,254.12350079783312L762.5713360025632,257.82070692401237L763.0723025074026,257.47593470128237L765.0761685267598,260.4029603324882L766.5790680412778,268.56205285964916L769.0839005654744,259.21730476266447L770.5868000799924,257.4797016075987L773.091632604189,245.6494059254967L773.5925991090284,225.95080214904803L775.0954986235463,225.40058675817883L777.0993646429037,241.10095801193856L779.1032306622609,250.0403075220069L781.6080631864576,248.28522435695413L784.1128957106542,250.1001385204225L785.1148287203329,250.031686823191L786.6177282348508,255.5152404142271L787.1186947396901,245.57242901416126L788.1206277493689,244.13509217412175L791.627393283244,244.76266135916052L796.6370583316373,220.81035521393383L798.1399578461553,233.25297191742283L799.6428573606732,246.14357533795368L800.1438238655126,245.4394131715222L801.1457568751912,251.72277505135085L804.1515559042272,240.953596866748L806.1554219235845,235.3587255028613L806.6563884284238,232.00180268452925L807.1573549332632,240.91285524353006L807.6583214381025,246.25948677893052L808.1592879429418,232.2394832782958L811.6660534768171,196.48848449822748L812.1670199816564,193.7909617926865L814.1708860010137,214.4414122318619L816.6757185252103,216.85336022974212L817.1766850300496,218.0393421144078L819.180551049407,217.7666644483322L820.6834505639249,220.5795510127493L822.6873165832823,219.79374154514957L832.7066466800687,229.16801074740223L834.7105126994261,224.53089961250387L839.7201777478192,228.28628078312732L840.2211442526586,230.5395094855014L842.2250102720159,225.61543323036335L843.2269432816946,227.2169894304055L843.7279097865338,227.8793704160558L844.2288762913732,228.27679900744602L844.7298427962126,234.7066712013426L846.2327423107305,241.70466014268055L847.7356418252484,247.01556385904584L848.7375748349272,245.560905307615L849.7395078446058,238.13803537206903L850.2404743494451,233.68431341074142L851.743373863963,230.05892613238237L852.7453068736418,237.13011720286693L853.246273378481,244.05726895453265L854.2482063881597,248.7931975055321L854.749172892999,251.62140444081922L855.7511059026776,249.61816082855404L859.2578714365529,238.3333677861949L860.7607709510709,235.92018375765448L861.2617374559102,234.4722733405302L862.263670465589,229.60320365275564L865.7704359994642,235.94798684009086L867.7743020188216,227.22656788530455L869.2772015333395,222.23932159055772L870.7801010478574,221.5969593605846L871.2810675526968,221.21154202260075L873.2849335720541,226.65145119012297L873.7859000768934,207.6365998156363L875.2887995914114,206.43521887375675L878.7955651252867,190.83778112894154L879.296531630126,209.8100811773649L879.7974981349652,217.53025144079396L880.7994311446439,222.1623535988514L881.8013641543225,212.53056079212334L882.3023306591618,206.75148510808648L885.8090961930371,187.79412583047687L888.3139287172338,184.65018213891113L891.3197277462697,199.6322436583467L892.8226272607877,216.404412210633L893.3235937656269,207.5116594357548L894.8264932801451,191.6715677317654L898.3332588140203,168.5981125140592L899.8361583285382,179.96381301624803L900.3371248333776,186.7832333175613L900.8380913382168,190.6509284670993L905.3467898817707,197.1175543458846L906.8496893962887,196.90199920909325L907.3506559011281,180.39667198639347L908.3525889108068,170.49347565277355L909.3545219204855,191.10144867291416L909.8554884253248,186.7140539693735L910.3564549301642,184.0816171472491L910.8574214350034,182.50215505397446L912.3603209495215,189.64654830582217L914.3641869688786,194.65720437411832L914.865153473718,197.66359801509597L916.8690194930753,175.01146798874512L919.3738520172719,180.87406966043457L921.8786845414686,195.91614003844822L922.3796510463078,208.60577015588146L922.8806175511472,207.39220877321634L924.8844835705045,195.59648249049235L925.3854500753439,190.3719654708579L925.8864165801832,187.23725525907724L929.8941486188977,178.79366682732132L931.3970481334158,167.3207793932678L932.3989811430944,160.4370469328357L936.406713181809,179.38512640188887L937.9096126963269,159.71626529425833L939.9134787156842,177.81350683280496L941.9173447350415,165.78238398249547L942.9192777447203,176.72966144418479L944.4221772592382,176.76473573369836L944.9231437640776,176.7857803074065L947.4279762882741,149.2617459188189L947.9289427931135,155.73527977785383L949.9328088124707,153.76708114796227L950.4337753173102,152.58616197002738L950.9347418221495,151.87761046326642L951.4357083269887,151.45247955920982L952.4376413366674,164.83607269646342L953.439574346346,172.07053541475304L955.4434403657033,141.1504302332268L957.4473063850606,150.0587956399361L958.9502058995786,135.98765785271166L959.4511724044179,127.54497518037704L961.4550384237752,149.25862260822623L962.9579379382932,140.45216731493574L963.9598709479719,105.65759960771142L966.9656699770078,118.35255038962683L967.4666364818471,125.9695208587761L967.9676029866865,114.53796759339062L968.4685694915257,107.67903563415939L970.9734020157224,113.95501083362062L971.4743685205617,117.7205959532974L971.9753350254011,131.97810229854093L973.9792010447584,130.30340551974956L975.4821005592763,97.40334526497473L976.4840335689549,113.98320364335981L977.9869330834729,131.86431222507838L978.9888660931516,142.59297737410955L979.4898325979909,149.03017646352822L979.9907991028301,137.34491056561694L980.4917656076695,130.33375102687012L983.4975646367056,114.29129436612207L985.5014306560629,129.09389673686076L986.0023971609021,137.97545815930394L986.5033636657414,147.67378309870733L987.0043301705808,135.16463079672442L989.5091626947775,108.15376207178461L993.516894733492,103.7234838055708L994.0178612383313,101.06531684584247L996.0217272576887,119.60631178719302L997.0236602673674,123.1810249629408L998.5265597818853,125.32585286838949L999.5284927915638,123.40625586165876L1001.031392306082,102.00135078262026L1001.5323588109212,89.15840773519712L1005.5400908496358,80.07045206299327L1006.0410573544751,74.61767865967096L1007.0429903641538,99.95450328955255L1012.0526554125471,111.65567502060655L1013.0545884222256,101.47234329361395L1014.5574879367438,95.36234425741839L1016.5613539561009,106.39285382007601L1017.0623204609402,113.0111595576706L1017.5632869657796,116.98214300022734L1019.0661864802976,112.1842764251364L1020.5690859948155,84.82530843320684L1021.5710190044942,68.40992763804911L1022.5729520141728,58.37034134845446L1024.5768180335301,54.832977074697695L1025.5787510432087,52.71055851044362L1028.5845500722446,61.67397143439115L1029.5864830819235,55.79168168875973L1034.0951816254772,63.68199807575585L1036.0990476448346,62.263260173578544L1037.6019471593527,72.53289438539711L1038.1029136641919,62.580031943738234L1039.1048466738707,55.77050900999298L1039.60581317871,51.684795249745775L1040.6077461883885,49.23336699359745L1041.108712693228,49.620254571158455L1042.6116122077458,61.8118738364451L1043.6135452174244,69.12684539561708L1047.1203107513,60.47294239362022L1047.6212772561391,55.28060059242215L1048.1222437609783,52.16519551170326L1048.6232102658178,50.29595246327196L1050.1261097803358,53.209892571713176L1054.6348083238897,74.90607655865291L1057.1396408480862,64.15777718519175L1057.6406073529256,61.12453310799004L1058.141573857765,52.58230736479399L1060.1454398771223,47.4569719188764L1060.6464063819617,45.94303549507585L1061.64833939164,46.8622400470455L1063.1512389061581,47.88049285635229L1064.6541384206762,48.49144454193638L1066.1570379351942,44.26616008453681L1066.6580044400334,41.73098941009711L1067.659937449712,40.20988700543326L1068.6618704593907,39.54443923450995L1069.6638034690695,39.145170571955965L1072.1686359932662,40.60873632754861L1074.1725020126235,39.838508984029104L1075.6754015271413,39.376372577917444L1078.6812005561771,42.171153624875494L1079.1821670610166,43.84802225305033L1079.683133565856,44.01671178933019L1081.1860330803738,41.35659308922314L1083.6908656045705,40.85321015040887L1086.6966646336064,41.41190265274536L1087.1976311384458,41.747118154147245L1087.6985976432852,41.94824745498836L1089.201497157803,39.99463206674308L1092.207296186839,41.67280033379582L1092.7082626916783,42.67970129402748L1094.7121287110356,40.98624890141642L1095.213095215875,39.97017746584982L1095.7140617207142,39.360534604509944L1097.2169612352322,39.68253599708094L1098.2188942449109,37.877364957623556L1099.721793759429,36.794262333949135L1101.224693273947,37.16780622849447L1102.7275927884648,40.258797799596714L1104.7314588078223,38.98106422663306L1105.2324253126615,38.21442408285482L1105.7333918175007,37.75443999658795L1106.23435832234,37.47844954482779L1106.7353248271795,37.312855273771646L1107.7372578368581,40.288484258012964L1108.2382243416973,41.138385086057745L1108.7391908465368,41.64832558288463L1113.2478893900907,40.65943988098076L1114.2498223997693,39.58757447546347L1115.251755409448,38.94445523215309L1117.2556214288052,39.61580360804182L1118.257554438484,39.185553649200095L1118.7585209433232,38.92740367389506L1120.2614204578413,38.77251368871202L1120.7623869626805,38.679579697602264L1132.7855830788244,38.08301461543634L1133.2865495836636,37.72507556613684L1135.290415603021,38.89569651155712L1135.7913821078603,36.87620384443427L1137.7952481272177,35.664508244160594L1138.7971811368961,34.93749088399638L1140.3000806514142,35.87354687414783L1142.3039466707714,37.352781249488686L1142.8049131756109,36.050210155943184L1144.808779194968,35.26866749981586L1146.3116787094862,37.01638409363953L1148.3155447288434,36.726482799933734L1151.8223102627187,34.718949054960234L1152.323276767558,33.51442880797618L1152.8242432723973,32.79171665978573L1153.3252097772368,32.358089370871426L1158.3348748256299,31.066827060022852L1158.8358413304693,30.29206967351371L1159.837774340148,29.827215241608272L1161.8416403595052,31.584397113714946L1164.3464728837018,31.98573045572893L1166.8513054078985,32.60026796093733L1167.8532384175771,32.968990464062394L1168.3542049224166,33.190223965937406L1169.356137932095,33.32296406706248L1169.8571044369344,33.457390940237524L1170.3580709417738,32.38517245476752L1172.361936961131,30.78735620723553L1173.3638699708097,29.828666458716295L1173.864836475649,29.253452609604796L1174.8667694853275,28.908324300137906L1176.3696689998458,30.933522314457775L1177.3716020095242,33.69718448242467L1179.3754680288816,33.603124751954745L1179.8764345337208,32.48808696054782L1181.8803005530783,31.819064285703693L1182.3812670579175,31.417650680797227L1184.3851330772748,30.69775876785328L1184.8860995821142,30.265823620086973L1185.8880325917928,30.006662531427143L1186.388999096632,29.8511658782313L1186.8899656014714,30.994310073813768L1188.3928651159893,31.680196591163273L1191.8996306498648,30.93894451719797L1192.400597154704,30.49419327281878L1192.9015636595434,30.227342526191197L1194.4044631740612,31.57860785946475L1196.4083291934185,32.11724284067882L1199.4141282224546,31.50140156378229L1201.9189607466512,30.57756632889437L1204.423793270848,30.023265187961634L1204.924759775687,30.414948175277033L1205.9266927853657,30.64995796766621L1209.433458319241,31.486929858724714L1212.4392573482771,32.75079346210983L1212.9402238531163,33.509111624140935L1216.4469893869916,34.50191658385951L1217.4489223966702,35.29251127844075L1218.4508554063489,35.47902043893944L1219.4527884160275,35.590925935238666L1221.9576209402242,35.65806923301818L1224.4624534644208,34.20712083668592L1225.4643864740995,33.33655179888659L1225.9653529789389,32.81421037620698L1226.466319483778,33.26290513197421L1229.472118512814,32.71611182918451L1230.4740515224928,32.38803584751073L1230.975018027332,32.191190258506424L1231.9769510370106,32.0730829051039L1232.4779175418498,32.0022184930623L1235.483716570886,30.03956000208735L1237.4875825902434,29.053251626252468L1238.4895155999218,28.46146660075148L1242.998214143476,26.332320585450876L1244.5011136579938,25.05483297627057L1246.0040131725118,26.191884551387282L1247.0059461821904,27.430145183957396L1252.0156112305835,25.55368789162445L1253.5185107451018,24.42781351622471L1254.019477249941,25.14175139098482L1257.025276278977,25.6484254439659L1258.528175793495,26.071386516379548L1263.0368743370489,25.401467847327773L1265.040740356406,25.84012016152166L1265.5417068612453,25.64592717503797L1267.5455728806028,25.52941138314778L1271.0523384144778,25.984107376763667L1271.5533049193173,26.25692497293319L1275.0600704531926,24.146029983759973L1277.5649029773892,24.847448849630997L1278.0658694822287,25.268300169153587L1278.566835987068,25.52081096086719L1279.5687689967465,25.0809553265203L1280.5707020064253,24.817041945912184L1283.0755345306218,24.658693917547275L1284.5784340451398,24.99610228802838L1287.0832665693365,26.28277348219203L1290.0890655983724,27.05477619869025L1291.090998608051,27.72898681296414L1292.593898122569,28.133513181528503L1295.0987306467657,28.022372362042127L1296.100663656444,27.955687870350268L1296.6016301612835,27.915677175335176L1297.102596666123,27.891670758326132L1298.1045296758016,27.877266908120678L1298.6054961806408,27.868624597997425L1300.6093621999983,28.848283743173404L1301.1103287048375,29.436079230279017L1301.6112952096769,29.788756522542425L1303.6151612290341,28.288094147900438L1304.6170942387128,27.387696723115262L1307.6228932677489,27.721559049494164L1309.1257927822667,28.59918503907151L1310.6286922967847,29.125760632817876L1311.6306253064633,29.441705989065706L1314.13545783066,29.08432867156441L1317.141256859696,27.311288218563615L1319.6460893838926,27.88284871238819L1320.6480223935712,28.225785008682873L1321.6499554032498,28.431546786459677L1322.1509219080892,28.555003853125843L1322.6518884129287,28.731337077500505L1323.653821422607,27.429866699625315L1324.1547879274465,26.648984472900175L1329.1644529758396,27.572296543115094L1331.168318995197,27.692258003994052L1332.6712185097151,27.76423488052143L1334.6750845290721,27.938532725187866L1339.1837830726263,27.626995416362785L1340.686682587144,27.877837093567653L1342.6905486065014,28.093626084265644L1343.1915151113408,28.22309947868437L1344.6944146258588,28.300783515335635L1345.6963476355374,28.745305656076415L1346.1973141403766,29.0120189405208L1349.2031131694127,28.016646129937445L1352.2089121984486,27.419422443587457L1354.2127782178059,28.66150307552748L1356.216644237163,29.057369423441543L1357.218577246842,29.294889232189956L1357.7195437516814,29.437401117438945L1359.7234097710384,30.762476998588383L1361.7272757903957,31.55752252727804L1362.7292088000745,32.710453750741856L1363.7311418097531,31.672192562945153L1367.2379073436284,32.12299483464207L1367.7388738484676,32.393476197660235L1369.742739867825,32.992679468596144L1371.7466058871823,32.98588385303269L1373.2495054017002,32.98180648369464L1374.251438411379,32.979360062091786L1374.7524049162184,32.97789220913006L1375.2533714210576,32.97701149735307L1376.7562709355757,33.29250377341187L1377.7582039452543,34.00847765467214L1378.2591704500935,34.43806198342832L1379.2611034597721,34.36201804943202L1380.263036469451,34.316391689034205L1381.7659359839688,33.628824075920555L1382.7678689936477,32.328135851802315L1383.769802003326,31.547722917331384L1384.2707685081655,31.079475156648815L1384.7717350130047,30.79852650023931L1385.7736680226835,30.629957306393553L1386.775601032362,30.52881579008616L1389.2804335565586,31.077062911551714L1390.2823665662374,31.406011184431048L1390.7833330710766,31.60338014815863L1391.7852660807553,31.89315074514518L1394.290098604952,30.896443962712105L1395.2920316146306,30.298419893252294L1396.2939646243094,29.93960545157638L1396.7949311291486,29.72431678657086L1402.3055626823812,30.124688118817527L1405.3113617114172,29.63812107441547L1407.816194235614,30.119483972774287L1408.3171607404531,29.880581008664564L1409.3190937501317,29.73723923019875L1410.8219932646498,29.301070491244236L1412.825859284007,28.766418075996594L1413.8277922936857,28.445626626847925L1414.3287587985249,28.25315175735879L1416.8335913227215,30.046761757540292L1417.334557827561,30.199685570149164L1417.8355243324002,30.291439857714472L1419.3384238469182,29.671143602128677L1419.8393903517574,29.298965848777243L1421.3422898662757,29.075659196766313L1424.3480888953115,29.60559395555975L1424.8490554001507,29.923554810835874L1425.8509884098294,30.114331324001512L1426.8529214195082,30.05980426315096L1427.8548544291866,30.02708802664057L1428.355820934026,30.007458284734366L1433.8664524872586,31.715097236465642L1434.367418992098,32.73968060750437L1434.8683854969374,33.35443063012761L1436.3712850114553,34.22774470620154L1438.8761175356517,35.35677963622092L1439.3770840404911,36.03420059423256L1441.8819165646878,36.725895356539525L1442.3828830695272,37.14091221392379L1442.8838495743664,37.29888951585424L1443.3848160792058,37.39367589701254L1444.3867490888845,36.74818131945752L1444.8877155937237,35.8876521510495L1445.388682098563,35.37133465000472L1446.891581613081,35.061544149377795L1452.4022131663137,33.76496984900163L1455.4080121953496,31.382724878150974L1456.4099452050282,29.95337789564062L1458.9147777292249,29.549710331134367L1460.417677243743,29.360593386180632L1460.918643748582,29.24712321920834L1461.4196102534215,29.17904111902501L1462.4215432631001,29.138191858915043L1465.9283087969754,29.161974099724056L1467.4312083114935,29.176243444209376L1468.4331413211721,29.49765387902567L1469.93604083569,29.682955608665388L1470.9379738453688,28.100287427699193L1471.9399068550472,27.150686519119542L1476.4486053986013,26.6863455052217L1476.9495719034405,26.407740896883052L1477.4505384082797,26.240578131879882L1478.4524714179586,26.14028047287792L1479.4544044276372,27.71768429935172L1479.9553709324764,28.664126595236002L1480.4563374373158,29.231991972766604L1481.4582704469944,29.950549480535017L1481.9592369518339,29.40839414144601L1483.9631029711911,29.083100937992654L1484.4640694760305,28.0019636877956L1484.96503598087,27.35328133767736L1487.4698685050664,26.964071927606383L1487.9708350099058,27.71038378156387L1488.9727680195842,27.209281831438332L1489.974701029263,23.140637067612982L1490.4756675341025,20.6994502093178L1492.4795335534598,19.234738094340653L1492.980500058299,21.16138895035442L1494.9843660776562,22.317379463962688L1495.4853325824956,23.621514397127612L1495.986299087335,22.088028169526552L1496.4872655921743,21.167936432965952L1497.4891986018529,20.615881391029497L1497.9901651066923,20.284648365867724L1498.4911316115317,20.08590855077066L1501.9978971454068,21.99886231796236L1502.498863650246,23.146634578277485L1502.9998301550854,23.835297934466496L1505.504662679282,24.306767823179882L1506.0056291841215,24.58964975640796L1508.0094952034788,24.759378916344755L1509.5123947179968,25.72407969355686L1511.0152942325146,27.497756800509165L1512.0172272421933,28.56196306468049L1513.0191602518719,29.200486823183276L1514.0210932615505,29.425528422034994L1514.52205976639,29.56055338134598L1515.0230262712294,29.641568356932606L1517.527858795426,29.411630076659552L1518.0288253002652,29.273667108495747L1524.040423358337,29.979134249472438L1525.0423563680158,29.691336799683437L1528.549121901891,29.095632157935103L1531.554920930927,28.92146445101107L1532.0558874357664,28.816963826856664L1537.566518988999,29.59846931173898L1538.0674854938381,28.517877680793386L1540.5723180180348,27.869522702226014L1542.5761840373923,28.732516746335598L1543.5781170470707,29.250313172801377L1544.0790835519101,30.14022071618083L1544.5800500567495,30.67416524220851L1545.0810165615887,30.994531957825068L1546.0829495712674,30.960789877820083L1547.084882580946,30.940544629817083L1547.5858490857854,30.928397481015217L1549.0887486003032,30.113175988609118L1551.0926146196607,29.624043093165465L1551.5935811245,29.330563355899283L1554.0984136486966,28.936760279164552L1555.1003466583752,28.70047843312373L1556.102279668054,28.558709325499255L1556.6032461728933,28.75272754842452L1557.1042126777324,29.606678716554722L1558.6071121922505,30.11904941743283L1559.10807869709,30.426471837959713" fill="none"></path></g></g></g></g><g opacity="0.2"><g><g><g><path style="fill: none;" stroke="rgb(0, 153, 136)" stroke-width="2px" d="M124.34000883726327,360.7292494506836L124.8409753421026,353.4055086669922L127.84677437113854,346.11987463378904L129.85064039049584,343.01245666503905L130.35160689533515,340.89179626464846L131.85450640985314,343.26574645996095L132.35547291469248,341.6697127685547L132.8564394195318,341.08029272460936L133.85837242921042,342.8283994140625L134.35933893404976,344.2776135253906L135.86223844856772,342.21015991210936L136.36320495340706,339.91208337402344L141.87383650663963,342.6959205322266L142.8757695163183,339.17040979003906L146.38253505019358,338.15662402343753L146.88350155503286,341.22392626953126L147.3844680598722,342.1492039794922L148.38640106955086,340.4384694824219L149.88930058406885,334.07189331054684L151.3922000985868,344.6748377685547L152.89509961310478,340.51069689941403L153.3960661179441,339.0791794433594L153.89703262278343,336.1044881591797L154.39799912762277,335.32762658691405L155.39993213730142,332.0207521972656L155.90089864214073,340.9368786621094L156.40186514698007,329.5330499267578L156.90283165181938,339.4454354248047L157.90476466149804,334.0151677246094L158.40573116633738,332.0415216064453L161.4115301953733,330.6877752685547L162.41346320505195,326.10999853515625L163.91636271956995,340.1412407226563L165.4192622340879,329.9455069580078L167.4231282534452,330.40395617675784L172.43279330183844,332.93266979980467L174.43665932119575,326.75734423828123L175.93955883571374,329.1621494140625L176.44052534055305,339.05443811035155L177.4424583502317,329.10091381835934L180.94922388410697,334.68410412597655L183.45405640830361,327.65217053222653L185.4579224276609,337.7409915771484L185.95888893250023,339.119146484375L186.96082194217888,328.96004858398436L187.96275495185753,325.4183811035156L188.46372145669685,333.95460119628905L190.9685539808935,323.47047106933593L191.4695204857328,325.21441113281253L194.9762860196081,331.5224739990234L195.97821902928675,324.85881420898437L196.47918553412606,325.25695532226564L197.98208504864402,329.15381970214844L201.48885058251932,322.84150170898437L202.99175009703728,322.6784652099609L203.9936831067159,313.2892160644531L204.99561611639456,328.29543811035154L208.00141514543054,325.6633872070313L208.50238165026985,322.0701484375L209.0033481551092,321.0530102539063L211.5081806793058,329.8289370117188L213.5120466986631,322.44976098632816L215.01494621318108,323.5626749267578L215.51591271802042,323.9454735107422L216.01687922285973,323.35733850097654L218.02074524221703,320.97874377441406L218.52171174705637,297.3182023925781L219.0226782518957,318.6201502685547L222.52944378577095,325.09147265625L224.03234330028891,317.4592192382812L224.53330980512825,319.5787220458984L225.03427630996757,314.6347495117187L225.5352428148069,323.43459631347656L226.53717582448556,327.6741506347656L228.54104184384286,325.3893209228516L229.5429748535215,317.59690551757814L230.54490786320017,328.71404772949217L232.54877388255744,321.41556689453125L233.04974038739675,331.5924322509766L233.5507068922361,321.92267041015623L235.05360640675406,328.8228083496094L237.5584389309507,324.613146118164L242.56810397934396,314.7519106445313L243.5700369890226,322.68317700195314L245.07293650354055,321.15315441894535L245.5739030083799,323.3371602783203L246.0748695132192,326.95674755859375L250.0826015519338,308.10150830078123L252.08646757129114,321.9412449951172L252.58743407613045,309.7859721679688L253.0884005809698,310.1048376464844L258.59903213420233,314.47973828125004L260.1019316487203,313.31299096679686L261.10386465839895,325.1707553710937L262.1057976680776,315.30139550781246L263.10773067775625,313.0920358886719L264.10966368743493,310.01001416015623L264.61063019227424,310.01001416015623L265.6125632019529,312.8595969238281L267.11546271647086,321.2899025878906L268.11739572614954,320.81811096191404L270.6222282503461,327.53595812988283L271.12319475518547,317.3647143554688L271.6241612600248,305.0165625L272.1251277648641,301.3447136230469L276.1328598035787,323.57999633789063L277.1347928132574,297.45723388671877L279.1386588326147,324.6421708984375L281.142524851972,321.42600646972653L282.14445786165066,310.4250908203125L282.64542436649,317.294267578125L284.1483238810079,317.78855261230467L291.6628214535978,325.2945045166016L292.1637879584371,324.70029833984376L294.66862048263374,310.00820874023435L295.6705534923124,313.37900561523435L296.1715199971517,318.6710135498047L299.17731902618766,285.87324194335935L300.1792520358663,318.7927908935547L302.1831180552236,312.91886425781246L304.18698407458095,302.7494860839844L304.68795057942026,302.7494860839844L305.1889170842596,317.58009033203126L305.6898835890989,317.58009033203126L306.19085009393825,317.52247265625L306.69181659877756,318.1355437011719L312.2024481520101,320.57163574218754L316.2101801907247,306.7201496582031L318.214046210082,299.373626953125L319.2159792197607,301.7023991699219L320.2179122294393,317.374470703125L321.72081174395726,312.0145329589844L324.22564426815387,321.2382144775391L325.22757727783255,323.58048486328124L327.73240980202917,297.98297216796874L329.73627582138647,309.1746569824219L330.23724232622584,316.5456767578125L330.73820883106515,317.0347260742188L332.24110834558314,313.67174560546874L333.74400786010114,316.5941823730469L334.2449743649404,314.9177685546875L335.7478738794584,320.0286397705078L336.2488403842977,320.46070507812505L338.252706403655,301.49262353515627L340.7575389278516,317.92384228515624L341.258505432691,307.2606569824219L341.7594719375303,308.5426608886719L342.7614049472089,307.0927600097656L343.7633379568876,316.95205908203127L344.7652709665663,316.6391125488281L345.2662374714056,307.17456323242186L346.2681704810842,314.00991845703123L348.2720365004415,311.386423828125L349.27396951012014,307.5563068847656L351.27783552947744,314.0916437988281L353.28170154883475,298.94253515625L353.78266805367406,315.4314777832031L355.7865340730314,293.4055034179687L356.28750057787073,284.0287541503906L357.28943358754935,311.4262067871094L358.29136659722803,313.5439289550781L360.2952326165853,314.2970085449219L360.7961991214246,322.44848303222653L362.2990986359426,312.4037814941406L363.30103164562126,270.1117915039062L363.8019981504606,270.1117915039062L364.8039311601392,298.57223291015623L365.30489766497857,318.7618898925781L366.80779717949656,297.9353232421875L367.3087636843359,297.9353232421875L367.8097301891752,300.4764836425781L368.81166319885386,316.3348107910156L370.3145627133718,302.3793041992187L372.3184287327291,316.75421337890623L374.3222947520864,306.02716577148436L374.8232612569257,314.93711840820316L377.8290602859617,306.8805134277344L378.330026790801,306.8805134277344L378.8309932956403,308.0304172363281L379.33195980047964,279.88802001953127L379.832926305319,279.88802001953127L380.3338928101583,319.23375231933596L381.8367923246763,319.49237341308594L382.3377588295156,319.49237341308594L382.83872533435493,306.9879677734375L389.85225640210547,307.191166015625L390.3532229069448,308.1630554199219L391.35515591662346,303.93911621093747L391.85612242146277,310.8328325195313L392.3570889263021,301.88638208007814L393.35902193598076,311.34424072265625L394.3609549456594,288.928982421875L395.36288795533807,315.0205358886719L396.36482096501675,310.57386450195315L396.86578746985606,313.0215324707031L398.368686984374,311.9658291015625L399.3706199940526,303.2259895019531L400.8735195085706,308.43052661132816L401.3744860134099,312.22259521484375L404.3802850424459,303.7080083007813L404.8812515472852,302.75173754882815L405.38221805212453,302.75173754882815L407.3860840714819,314.9955148925781L408.8889835859998,307.24013183593746L409.8909165956785,307.4852724609375L411.39381611019644,303.7796374511718L413.39768212955374,310.630384765625L415.40154814891105,310.093828125L415.90251465375036,301.09746313476563L417.40541416826835,288.63603710937497L418.40734717794703,302.04033837890626L418.90831368278634,304.60705078125L420.41121319730433,314.1462453613281L421.41314620698296,311.2482915039063L422.41507921666164,304.5911064453125L422.91604572150095,304.5911064453125L424.4189452360189,294.5568232421875L424.9199117408582,307.4146416015625L427.4247442650548,311.21614794921874L429.9295767892514,306.6932099609375L430.4305432940908,294.28061523437503L431.4324763037695,304.1413798828125L433.4363423231268,301.3784501953125L434.4382753328054,302.8832783203125L434.9392418376447,312.00137109375L436.4421413521627,308.6111960449219L437.4440743618414,300.95630053710937L437.94504086668064,301.4671140136719L439.94890688603795,308.2622331542969L441.95277290539525,288.12311376953124L443.4556724199132,306.68616528320314L443.95663892475255,311.6176379394531L444.45760542959187,298.5829450683594L444.95857193443123,298.5829450683594L445.4595384392705,291.7057465820312L447.9643709634672,310.6788337402344L448.96630397314584,290.73018969726564L449.4672704779851,313.63684790039065L450.4692034876638,317.21473706054684L450.97016999250314,312.096640625L452.4730695070211,291.54323046875L453.47500251669976,306.8603352050781L456.981768050575,302.74090502929687L458.484667565093,301.47800317382814L460.9895000892896,304.77874975585934L461.490466594129,312.318955078125L463.4943326134863,306.8473149414063L464.9972321280042,306.67316625976565L465.4981986328436,294.31485449218746L467.0010981473615,307.9319970703125L469.5059306715581,282.1176145019531L470.50786368123676,304.51919409179686L471.50979669091544,307.59411450195313L472.0107631957548,307.59411450195313L473.01269620543343,298.99268334960936L474.51559571995136,301.5492429199219L475.01656222479073,301.5492429199219L476.0184952344694,303.50192846679687L478.52332775866597,300.5514829101562L479.52526076834465,305.02398242187496L481.0281602828626,288.71925634765626L482.0300932925412,298.63085595703126L483.53299280705926,308.25936572265624L484.0339593118985,302.5416220703125L485.0358923215772,293.8096130371094L486.0378253312558,300.1124260253906L486.5387918360952,302.2709436035156L487.54072484577387,300.2758483886719L488.0416913506131,304.11766162109376L489.0436243602918,309.517056640625L489.54459086513117,308.4217473144531L490.0455573699704,306.9076018066406L492.55038989416715,269.49018896484375L494.55425591352434,297.223208984375L495.556188923203,298.45849853515625L501.56778698127493,299.62817700195313L502.56971999095356,309.81436328125L505.57551901998954,294.77552685546874L506.0764855248288,295.4799025878906L507.57938503934685,285.33652954101564L508.0803515441861,285.33652954101564L509.58325105870415,289.8783359375L511.0861505732221,306.8182583007812L511.58711707806145,301.25345849609374L512.5890500877401,289.4342663574219L513.0900165925794,289.4342663574219L513.5909830974188,293.236615234375L514.0919496022581,293.236615234375L514.5929161070974,285.82957202148435L517.5987151361334,295.1995173339844L519.1016146506513,292.67880419921875L525.6141792135625,303.92938110351565L526.1151457184019,285.70770971679684L526.6161122232412,279.9524133300781L527.1170787280805,279.9524133300781L528.6199782425984,283.5831552734375L532.627710281313,305.9692578125L533.1286767861524,281.64938061523435L537.136408824867,298.78483349609377L537.6373753297064,285.60126782226564L539.6412413490636,281.52584033203124L540.142207853903,288.7965141601563L541.1441408635816,293.54764306640624L541.645107368421,289.2331071777344L543.148006882939,297.0061337890625L543.6489733877783,293.1214860839844L545.1518729022962,295.63719360351564L546.1538059119748,281.27763403320307L548.6586384361715,297.043091796875L549.1596049410108,269.50761303710937L550.6625044555287,302.32919848632815L552.1654039700468,299.24356591796874L553.6683034845647,296.729359375L554.6702364942433,279.31572314453126L556.1731360087614,279.63332836914066L556.6741025136007,295.3552507324219L558.677968532958,293.2579475097656L559.1789350377973,293.2579475097656L565.6914996007085,288.7332182617187L566.6934326103872,284.4880671386719L568.6972986297445,277.2228520507812L569.699231639423,294.5055139160156L571.2021311539411,261.8252114257812L572.2040641636198,262.92783447265623L572.705030668459,262.92783447265623L574.2079301829771,295.1032565917969L574.7088966878164,297.01767431640627L577.213729212013,291.70118701171873L577.7146957168524,293.5013676757813L578.716628726531,282.53492138671874L579.2175952313703,282.53492138671874L580.7204947458882,306.42251025390624L582.7243607652456,269.7744541015625L583.2253272700849,299.4380769042969L584.2272602797635,281.8337600097656L587.7340258136388,282.62229663085935L588.7359588233174,254.2494853515625L589.2369253281568,295.09090185546876L589.7378918329962,277.7587360839844L591.2407913475141,291.9611179199219L593.2446573668714,283.40190527343754L594.2465903765501,274.390919921875L594.7475568813894,271.39657080078126L596.2504563959073,278.4896762695313L598.2543224152647,296.2835764160156L599.7572219297826,247.05911376953125L601.2601214443006,281.8963620605469L603.7649539684973,301.6822421875L605.2678534830152,286.20008666992186L606.2697864926939,276.8123845214844L607.2717195023725,285.04834204101564L607.7726860072119,285.04834204101564L612.7823510556051,276.4640305175781L613.2833175604444,278.5917497558593L614.7862170749625,279.1119584960938L616.7900830943197,282.72771191406247L618.7939491136771,271.2798981933594L619.7958821233557,279.7930124511719L620.7978151330342,297.086931640625L621.7997481427129,269.05751831054687L622.8016811523916,272.0058681640625L623.3026476572309,275.45611767578123L624.8055471717488,288.45771826171875L625.3065136765882,280.5328098144531L625.8074801814275,280.5328098144531L626.8094131911062,278.87873364257814L629.3142457153028,290.80528100585934L630.3161787249815,267.27101635742184L631.3181117346601,276.48505126953125L634.8248772685354,284.5988774414062L636.8287432878927,279.88128686523436L637.8306762975714,297.4490493164063L638.3316428024107,291.5752253417969L641.3374418314465,255.148173828125L641.838408336286,255.148173828125L642.3393748411253,288.55152221679685L642.8403413459646,287.304416015625L643.3413078508039,287.304416015625L645.3451738701611,280.03944165039064L646.8480733846791,278.1526787109375L651.8577384330724,253.22818408203125L652.859671442751,277.48611767578126L653.3606379475904,277.48611767578126L653.8616044524297,284.5048186035156L654.8635374621083,293.9878044433594L656.3664369766263,280.88527734375L657.3683699863051,289.46512133789065L658.3703029959837,281.9601677246094L658.871269500823,280.3852822265625L659.3722360056622,258.64382080078127L659.8732025105016,258.64382080078127L660.374169015341,276.25763916015626L660.8751355201803,285.7034050292969L662.3780350346982,299.4159729003906L663.8809345492162,276.71095532226565L664.8828675588949,292.8599479980469L666.3857670734128,249.1537265625L666.8867335782522,249.1537265625L667.3877000830914,249.1537265625L669.3915661024488,285.39194531249996L672.898331636324,269.88341650390623L673.9002646460027,263.06662524414065L674.9021976556813,286.22626171875L675.4031641605208,290.5588447265625L675.90413066536,262.27214135742184L677.407030179878,266.83156298828123L678.4089631895566,276.31379125976565L679.4108961992354,274.88503857421875L679.9118627040746,274.88503857421875L680.9137957137533,281.6996845703125L683.41862823795,274.90301489257814L684.4205612476285,274.0974294433593L684.9215277524679,225.36884130859374L686.4244272669858,254.49849169921873L686.9253937718252,254.49849169921873L687.9273267815038,254.38692382812502L688.4282932863431,254.38692382812502L689.9311928008611,272.08234716796875L690.9331258105398,285.26735717773437L691.9350588202184,252.82971728515625L693.4379583347363,268.5871037597656L696.9447238686116,270.13080859375L697.9466568782902,266.33295556640627L698.9485898879689,283.02482031249997L699.4495563928083,262.0292380371094L699.9505228976476,258.2295087890625L703.9582549363622,256.44534326171873L704.9601879460408,264.84254248046875L705.9621209557195,273.8968083496094L707.4650204702375,279.22957275390627L710.4708194992734,271.12441259765626L710.9717860041128,270.57221606445313L711.9737190137914,279.78441015625L712.4746855186307,254.64111279296876L712.97565202347,254.64111279296876L714.9795180428274,263.05009326171876L715.981451052506,255.39817138671873L716.9833840621847,266.8648889160156L718.4862835767026,262.04709399414065L718.987250081542,276.82563842773436L720.49014959606,258.6444934082031L720.9911161008993,263.0560900878906L722.4940156154172,237.7836025390625L726.5017476541318,260.53289184570315L727.0027141589711,269.4364440917969L727.5036806638105,268.89830151367187L730.5094796928464,266.7890258789063L731.0104461976857,266.7890258789063L733.0143122170431,246.01787500000003L735.5191447412396,223.89864892578123L736.5210777509183,258.25223583984376L738.5249437702756,256.8057758789063L740.0278432847937,198.3792294921875L743.0336423138295,211.28260107421872L744.0355753235083,211.28260107421872L746.0394413428655,273.96532226562505L747.0413743525442,274.2147180175781L748.5442738670621,255.771900390625L749.0452403719014,221.9854702148438L749.5462068767408,221.9854702148438L750.04717338158,261.8816608886719L751.0491063912588,266.394396484375L752.0510394009374,258.95499023437503L752.5520059057767,265.8877744140625L754.0549054202946,263.99265698242186L754.555871925134,263.99265698242186L757.56167095417,229.2524765625L759.5655369735273,247.47310009765624L762.070369497724,262.5551391601563L762.5713360025632,263.36651611328125L763.0723025074026,256.9587763671875L765.0761685267598,264.7934987792969L766.5790680412778,280.8006916503906L769.0839005654744,245.20018261718752L770.5868000799924,254.873296875L773.091632604189,227.90396240234372L773.5925991090284,196.402896484375L775.0954986235463,224.575263671875L777.0993646429037,264.6515148925781L779.1032306622609,263.4493317871094L781.6080631864576,245.65259960937502L784.1128957106542,252.822509765625L785.1148287203329,249.92900927734377L786.6177282348508,263.74057080078126L787.1186947396901,230.65821191406246L788.1206277493689,241.97908691406252L791.627393283244,245.70401513671874L796.6370583316373,184.88189599609376L798.1399578461553,251.91689697265625L799.6428573606732,265.47948046875L800.1438238655126,244.383169921875L801.1457568751912,261.1478178710937L804.1515559042272,224.79982958984374L806.1554219235845,226.96641845703127L806.6563884284238,226.96641845703127L807.1573549332632,254.27943408203123L807.6583214381025,254.27943408203123L808.1592879429418,211.20947802734375L811.6660534768171,142.861986328125L812.1670199816564,189.74467773437496L814.1708860010137,245.417087890625L816.6757185252103,220.4712822265625L817.1766850300496,219.81831494140624L819.180551049407,217.35764794921872L820.6834505639249,224.798880859375L822.6873165832823,218.61502734375003L832.7066466800687,243.22941455078126L834.7105126994261,217.57523291015627L839.7201777478192,233.91935253906246L840.2211442526586,233.91935253906246L842.2250102720159,218.22931884765623L843.2269432816946,229.61932373046875L843.7279097865338,228.87294189453127L844.2288762913732,228.87294189453127L844.7298427962126,244.3514794921875L846.2327423107305,252.2016435546875L847.7356418252484,254.98191943359376L848.7375748349272,243.37891748046877L849.7395078446058,227.00373046875004L850.2404743494451,227.00373046875004L851.743373863963,224.62084521484374L852.7453068736418,247.73690380859375L853.246273378481,254.44799658203127L854.2482063881597,255.89709033203124L854.749172892999,255.86371484375L855.7511059026776,246.61329541015624L859.2578714365529,221.40617822265625L860.7607709510709,232.30040771484377L861.2617374559102,232.30040771484377L862.263670465589,222.29959912109373L865.7704359994642,245.46516162109373L867.7743020188216,214.144439453125L869.2772015333395,214.75845214843747L870.7801010478574,220.633416015625L871.2810675526968,220.633416015625L873.2849335720541,234.81131494140624L873.7859000768934,179.11432275390624L875.2887995914114,204.63314746093752L878.7955651252867,167.44162451171874L879.296531630126,238.26853125L879.7974981349652,229.11050683593749L880.7994311446439,229.11050683593749L881.8013641543225,198.08287158203126L882.3023306591618,198.08287158203126L885.8090961930371,159.35808691406248L888.3139287172338,179.9342666015625L891.3197277462697,222.1053359375L892.8226272607877,241.5626650390625L893.3235937656269,194.1725302734375L894.8264932801451,167.91143017578128L898.3332588140203,133.98792968749999L899.8361583285382,197.01236376953128L900.3371248333776,197.01236376953128L900.8380913382168,196.45247119140626L905.3467898817707,206.8174931640625L906.8496893962887,196.57866650390622L907.3506559011281,155.63868115234376L908.3525889108068,155.63868115234376L909.3545219204855,222.013408203125L909.8554884253248,180.1329619140625L910.3564549301642,180.1329619140625L910.8574214350034,180.1329619140625L912.3603209495215,200.36313818359375L914.3641869688786,202.17318847656247L914.865153473718,202.17318847656247L916.8690194930753,141.03327294921877L919.3738520172719,189.6679721679687L921.8786845414686,218.47924560546878L922.3796510463078,227.64021533203123L922.8806175511472,205.57186669921876L924.8844835705045,177.90289306640625L925.3854500753439,182.53518994140626L925.8864165801832,182.53518994140626L929.8941486188977,166.1282841796875L931.3970481334158,150.1114482421875L932.3989811430944,150.1114482421875L936.406713181809,207.80724560546875L937.9096126963269,130.21297363281252L939.9134787156842,204.959369140625L941.9173447350415,147.73569970703124L942.9192777447203,193.15057763671874L944.4221772592382,176.81734716796873L944.9231437640776,176.81734716796873L947.4279762882741,107.97569433593748L947.9289427931135,165.44558056640625L949.9328088124707,150.814783203125L950.4337753173102,150.814783203125L950.9347418221495,150.814783203125L951.4357083269887,150.814783203125L952.4376413366674,184.91146240234374L953.439574346346,182.92222949218748L955.4434403657033,94.77027246093749L957.4473063850606,163.42134375L958.9502058995786,114.88095117187503L959.4511724044179,114.88095117187503L961.4550384237752,181.82909374999997L962.9579379382932,127.24248437500002L963.9598709479719,53.46574804687502L966.9656699770078,137.39497656250003L967.4666364818471,137.39497656250003L967.9676029866865,97.39063769531248L968.4685694915257,97.39063769531248L970.9734020157224,123.3689736328125L971.4743685205617,123.3689736328125L971.9753350254011,153.36436181640624L973.9792010447584,127.79136035156247L975.4821005592763,48.053254882812496L976.4840335689549,138.85299121093752L977.9869330834729,158.68597509765627L978.9888660931516,158.68597509765627L979.4898325979909,158.68597509765627L979.9907991028301,119.81701171875001L980.4917656076695,119.81701171875001L983.4975646367056,90.22760937499999L985.5014306560629,151.29780029296873L986.0023971609021,151.29780029296873L986.5033636657414,162.2212705078125L987.0043301705808,116.40090234374999L989.5091626947775,67.637458984375L993.516894733492,97.07806640625L994.0178612383313,97.07806640625L996.0217272576887,147.41780419921875L997.0236602673674,128.54309472656252L998.5265597818853,128.54309472656252L999.5284927915638,120.5268603515625L1001.031392306082,69.8939931640625L1001.5323588109212,69.8939931640625L1005.5400908496358,66.43851855468748L1006.0410573544751,66.43851855468748L1007.0429903641538,137.959740234375L1012.0526554125471,129.2074326171875L1013.0545884222256,86.19734570312502L1014.5574879367438,86.19734570312502L1016.5613539561009,122.9386181640625L1017.0623204609402,122.9386181640625L1017.5632869657796,122.9386181640625L1019.0661864802976,104.98747656249999L1020.5690859948155,43.786856445312495L1021.5710190044942,43.786856445312495L1022.5729520141728,43.3109619140625L1024.5768180335301,49.52693066406249L1025.5787510432087,49.52693066406249L1028.5845500722446,75.11909082031251L1029.5864830819235,46.9682470703125L1034.0951816254772,75.51747265625L1036.0990476448346,60.1351533203125L1037.6019471593527,87.937345703125L1038.1029136641919,47.65073828125L1039.1048466738707,45.55622460937502L1039.60581317871,45.55622460937502L1040.6077461883885,45.55622460937502L1041.108712693228,50.20058593749999L1042.6116122077458,80.09930273437502L1043.6135452174244,80.09930273437502L1047.1203107513,47.49208789062502L1047.6212772561391,47.49208789062502L1048.1222437609783,47.49208789062502L1048.6232102658178,47.49208789062502L1050.1261097803358,57.580802734375006L1054.6348083238897,107.45035253906251L1057.1396408480862,48.03532812500002L1057.6406073529256,56.57466699218751L1058.141573857765,39.76896874999998L1060.1454398771223,39.76896874999998L1060.6464063819617,43.672130859375L1061.64833939164,48.24104687499999L1063.1512389061581,49.40787207031249L1064.6541384206762,49.40787207031249L1066.1570379351942,37.9282333984375L1066.6580044400334,37.9282333984375L1067.659937449712,37.9282333984375L1068.6618704593907,38.54626757812502L1069.6638034690695,38.54626757812502L1072.1686359932662,42.804084960937494L1074.1725020126235,38.68316796875002L1075.6754015271413,38.68316796875002L1078.6812005561771,46.3633251953125L1079.1821670610166,46.3633251953125L1079.683133565856,44.269746093749994L1081.1860330803738,37.36641503906252L1083.6908656045705,40.098135742187516L1086.6966646336064,42.24994140625002L1087.1976311384458,42.24994140625002L1087.6985976432852,42.24994140625002L1089.201497157803,37.06420898437499L1092.207296186839,44.190052734374994L1092.7082626916783,44.190052734374994L1094.7121287110356,38.44607031250001L1095.213095215875,38.44607031250001L1095.7140617207142,38.44607031250001L1097.2169612352322,40.165538085937506L1098.2188942449109,35.16960839843752L1099.721793759429,35.16960839843752L1101.224693273947,37.72812207031251L1102.7275927884648,44.89528515625001L1104.7314588078223,37.06446386718751L1105.2324253126615,37.06446386718751L1105.7333918175007,37.06446386718751L1106.23435832234,37.06446386718751L1106.7353248271795,37.06446386718751L1107.7372578368581,44.751927734375L1108.2382243416973,42.413236328125L1108.7391908465368,42.413236328125L1113.2478893900907,39.176111328125L1114.2498223997693,37.9797763671875L1115.251755409448,37.9797763671875L1117.2556214288052,40.62282617187498L1118.257554438484,38.5401787109375L1118.7585209433232,38.5401787109375L1120.2614204578413,38.5401787109375L1120.7623869626805,38.5401787109375L1132.7855830788244,37.18816699218752L1133.2865495836636,37.18816699218752L1135.290415603021,40.6516279296875L1135.7913821078603,33.84696484374999L1137.7952481272177,33.84696484374999L1138.7971811368961,33.84696484374999L1140.3000806514142,37.277630859374995L1142.3039466707714,39.5716328125L1142.8049131756109,34.096353515625005L1144.808779194968,34.096353515625005L1146.3116787094862,39.63795898437501L1148.3155447288434,36.29163085937501L1151.8223102627187,31.707648437499994L1152.323276767558,31.707648437499994L1152.8242432723973,31.707648437499994L1153.3252097772368,31.707648437499994L1158.3348748256299,29.12993359375001L1158.8358413304693,29.12993359375001L1159.837774340148,29.12993359375001L1161.8416403595052,34.22016992187502L1164.3464728837018,32.58773046874999L1166.8513054078985,33.52207421875001L1167.8532384175771,33.52207421875001L1168.3542049224166,33.52207421875001L1169.356137932095,33.52207421875001L1169.8571044369344,33.65903124999999L1170.3580709417738,30.77684472656251L1172.361936961131,28.390631835937505L1173.3638699708097,28.390631835937505L1173.864836475649,28.390631835937505L1174.8667694853275,28.390631835937505L1176.3696689998458,33.971319335937494L1177.3716020095242,37.842677734375L1179.3754680288816,33.46203515625001L1179.8764345337208,30.81553027343751L1181.8803005530783,30.81553027343751L1182.3812670579175,30.81553027343751L1184.3851330772748,29.617920898437486L1184.8860995821142,29.617920898437486L1185.8880325917928,29.617920898437486L1186.388999096632,29.617920898437486L1186.8899656014714,32.70902636718751L1188.3928651159893,32.70902636718751L1191.8996306498648,29.827066406250015L1192.400597154704,29.827066406250015L1192.9015636595434,29.827066406250015L1194.4044631740612,33.60550585937499L1196.4083291934185,32.925195312499994L1199.4141282224546,30.577639648437497L1201.9189607466512,29.19181347656251L1204.423793270848,29.19181347656251L1204.924759775687,31.002472656250003L1205.9266927853657,31.002472656250003L1209.433458319241,32.74238769531251L1212.4392573482771,34.6465888671875L1212.9402238531163,34.6465888671875L1216.4469893869916,35.99112402343752L1217.4489223966702,36.4784033203125L1218.4508554063489,35.758784179687495L1219.4527884160275,35.758784179687495L1221.9576209402242,35.758784179687495L1224.4624534644208,32.03069824218752L1225.4643864740995,32.03069824218752L1225.9653529789389,32.03069824218752L1226.466319483778,33.935947265625L1229.472118512814,31.89592187499999L1230.4740515224928,31.89592187499999L1230.975018027332,31.89592187499999L1231.9769510370106,31.89592187499999L1232.4779175418498,31.89592187499999L1235.483716570886,27.095572265625L1237.4875825902434,27.5737890625L1238.4895155999218,27.5737890625L1242.998214143476,23.13860156250001L1244.5011136579938,23.13860156250001L1246.0040131725118,27.897461914062493L1247.0059461821904,29.287536132812505L1252.0156112305835,22.73900195312499L1253.5185107451018,22.73900195312499L1254.019477249941,26.212658203125006L1257.025276278977,26.4084365234375L1258.528175793495,26.705828125000018L1263.0368743370489,24.396589843749986L1265.040740356406,26.49809863281251L1265.5417068612453,25.354637695312498L1267.5455728806028,25.354637695312498L1271.0523384144778,26.666151367187517L1271.5533049193173,26.666151367187517L1275.0600704531926,20.979687499999997L1277.5649029773892,25.89957714843749L1278.0658694822287,25.89957714843749L1278.566835987068,25.89957714843749L1279.5687689967465,24.42117187500001L1280.5707020064253,24.42117187500001L1283.0755345306218,24.42117187500001L1284.5784340451398,25.502214843749996L1287.0832665693365,28.212780273437488L1290.0890655983724,28.212780273437488L1291.090998608051,28.740302734375L1292.593898122569,28.740302734375L1295.0987306467657,27.85566113281248L1296.100663656444,27.85566113281248L1296.6016301612835,27.85566113281248L1297.102596666123,27.85566113281248L1298.1045296758016,27.85566113281248L1298.6054961806408,27.85566113281248L1300.6093621999983,30.31777246093752L1301.1103287048375,30.31777246093752L1301.6112952096769,30.31777246093752L1303.6151612290341,26.0371005859375L1304.6170942387128,26.0371005859375L1307.6228932677489,28.222352539062513L1309.1257927822667,29.91562402343751L1310.6286922967847,29.91562402343751L1311.6306253064633,29.91562402343751L1314.13545783066,28.54826269531249L1317.141256859696,24.65172753906248L1319.6460893838926,28.740189453124987L1320.6480223935712,28.740189453124987L1321.6499554032498,28.740189453124987L1322.1509219080892,28.740189453124987L1322.6518884129287,28.99583691406248L1323.653821422607,25.477661132812507L1324.1547879274465,25.477661132812507L1329.1644529758396,28.957264648437494L1331.168318995197,27.872200195312512L1332.6712185097151,27.872200195312512L1334.6750845290721,28.19997949218748L1339.1837830726263,27.15968945312502L1340.686682587144,28.254099609374997L1342.6905486065014,28.417309570312504L1343.1915151113408,28.417309570312504L1344.6944146258588,28.417309570312504L1345.6963476355374,29.412088867187503L1346.1973141403766,29.412088867187503L1349.2031131694127,26.523586914062516L1352.2089121984486,26.523586914062516L1354.2127782178059,30.524624023437493L1356.216644237163,29.651168945312513L1357.218577246842,29.651168945312513L1357.7195437516814,29.651168945312513L1359.7234097710384,32.7500908203125L1361.7272757903957,32.7500908203125L1362.7292088000745,34.4398505859375L1363.7311418097531,30.11480078124999L1367.2379073436284,32.79919824218748L1367.7388738484676,32.79919824218748L1369.742739867825,33.89148437499999L1371.7466058871823,32.9756904296875L1373.2495054017002,32.9756904296875L1374.251438411379,32.9756904296875L1374.7524049162184,32.9756904296875L1375.2533714210576,32.9756904296875L1376.7562709355757,33.765742187499995L1377.7582039452543,35.08243847656251L1378.2591704500935,35.08243847656251L1379.2611034597721,34.24795214843749L1380.263036469451,34.24795214843749L1381.7659359839688,32.59747265625001L1382.7678689936477,30.377103515624984L1383.769802003326,30.377103515624984L1384.2707685081655,30.377103515624984L1384.7717350130047,30.377103515624984L1385.7736680226835,30.377103515624984L1386.775601032362,30.377103515624984L1389.2804335565586,31.899433593749986L1390.2823665662374,31.899433593749986L1390.7833330710766,31.899433593749986L1391.7852660807553,32.327806640624985L1394.290098604952,29.401383789062514L1395.2920316146306,29.401383789062514L1396.2939646243094,29.401383789062514L1396.7949311291486,29.401383789062514L1402.3055626823812,30.725245117187487L1405.3113617114172,28.908270507812485L1407.816194235614,30.841528320312513L1408.3171607404531,29.52222656249998L1409.3190937501317,29.52222656249998L1410.8219932646498,28.646817382812486L1412.825859284007,27.964439453125006L1413.8277922936857,27.964439453125006L1414.3287587985249,27.964439453125006L1416.8335913227215,32.73717675781252L1417.334557827561,30.4290712890625L1417.8355243324002,30.4290712890625L1419.3384238469182,28.740699218749985L1419.8393903517574,28.740699218749985L1421.3422898662757,28.740699218749985L1424.3480888953115,30.400496093750014L1424.8490554001507,30.400496093750014L1425.8509884098294,30.400496093750014L1426.8529214195082,29.978013671875004L1427.8548544291866,29.978013671875004L1428.355820934026,29.978013671875004L1433.8664524872586,34.27655566406251L1434.367418992098,34.27655566406251L1434.8683854969374,34.27655566406251L1436.3712850114553,35.537715820312485L1438.8761175356517,37.05033203125L1439.3770840404911,37.05033203125L1441.8819165646878,37.763437500000016L1442.3828830695272,37.763437500000016L1442.8838495743664,37.53585546875001L1443.3848160792058,37.53585546875001L1444.3867490888845,35.779939453125L1444.8877155937237,34.59685839843751L1445.388682098563,34.59685839843751L1446.891581613081,34.59685839843751L1452.4022131663137,31.82010839843752L1455.4080121953496,27.80935742187501L1456.4099452050282,27.80935742187501L1458.9147777292249,28.944208984375006L1460.417677243743,29.07691796875001L1460.918643748582,29.07691796875001L1461.4196102534215,29.07691796875001L1462.4215432631001,29.07691796875001L1465.9283087969754,29.197647460937507L1467.4312083114935,29.197647460937507L1468.4331413211721,29.979769531249982L1469.93604083569,29.960908203124987L1470.9379738453688,25.726285156250004L1471.9399068550472,25.726285156250004L1476.4486053986013,25.98983398437502L1476.9495719034405,25.98983398437502L1477.4505384082797,25.98983398437502L1478.4524714179586,25.98983398437502L1479.4544044276372,30.08379003906249L1479.9553709324764,30.08379003906249L1480.4563374373158,30.08379003906249L1481.4582704469944,31.028385742187485L1481.9592369518339,28.59516113281252L1483.9631029711911,28.59516113281252L1484.4640694760305,26.3802578125L1484.96503598087,26.3802578125L1487.4698685050664,26.3802578125L1487.9708350099058,28.8298515625L1488.9727680195842,26.457628906249997L1489.974701029263,17.03766992187498L1490.4756675341025,17.03766992187498L1492.4795335534598,17.03766992187498L1492.980500058299,24.051365234375005L1494.9843660776562,24.051365234375005L1495.4853325824956,25.577716796875002L1495.986299087335,19.787798828125005L1496.4872655921743,19.787798828125005L1497.4891986018529,19.787798828125005L1497.9901651066923,19.787798828125005L1498.4911316115317,19.787798828125005L1501.9978971454068,24.868292968749987L1502.498863650246,24.868292968749987L1502.9998301550854,24.868292968749987L1505.504662679282,25.01397265625L1506.0056291841215,25.01397265625L1508.0094952034788,25.01397265625L1509.5123947179968,27.171130859374994L1511.0152942325146,30.1582724609375L1512.0172272421933,30.1582724609375L1513.0191602518719,30.1582724609375L1514.0210932615505,29.763090820312502L1514.52205976639,29.763090820312502L1515.0230262712294,29.763090820312502L1517.527858795426,29.066722656250015L1518.0288253002652,29.066722656250015L1524.040423358337,31.0373349609375L1525.0423563680158,29.259640625000017L1528.549121901891,28.2020751953125L1531.554920930927,28.660212890625015L1532.0558874357664,28.660212890625015L1537.566518988999,30.770727539062495L1538.0674854938381,26.896990234375L1540.5723180180348,26.896990234375L1542.5761840373923,30.02700781250001L1543.5781170470707,30.02700781250001L1544.0790835519101,31.475082031249986L1544.5800500567495,31.475082031249986L1545.0810165615887,31.475082031249986L1546.0829495712674,30.910176757812483L1547.084882580946,30.910176757812483L1547.5858490857854,30.910176757812483L1549.0887486003032,28.890343750000007L1551.0926146196607,28.890343750000007L1551.5935811245,28.890343750000007L1554.0984136486966,28.34605566406252L1555.1003466583752,28.34605566406252L1556.102279668054,28.34605566406252L1556.6032461728933,29.043754882812504L1557.1042126777324,30.88760546875L1558.6071121922505,30.88760546875L1559.10807869709,30.88760546875" fill="none"></path></g></g></g></g></g></g><g transform="translate(72, 377)" clip-path="url(#clip_1)"><clipPath id="clip_1"><rect width="1712" height="23"></rect></clipPath><g><g><line x1="0" y1="0" x2="0" y2="5" style="visibility: inherit;" fill="rgb(0, 0, 0)" stroke="rgb(204, 204, 204)" stroke-width="1px"></line><line x1="122.33614281790597" y1="0" x2="122.33614281790597" y2="5" style="visibility: inherit;" fill="rgb(0, 0, 0)" stroke="rgb(204, 204, 204)" stroke-width="1px"></line><line x1="244.67228563581193" y1="0" x2="244.67228563581193" y2="5" style="visibility: inherit;" fill="rgb(0, 0, 0)" stroke="rgb(204, 204, 204)" stroke-width="1px"></line><line x1="367.0084284537179" y1="0" x2="367.0084284537179" y2="5" style="visibility: inherit;" fill="rgb(0, 0, 0)" stroke="rgb(204, 204, 204)" stroke-width="1px"></line><line x1="489.34457127162386" y1="0" x2="489.34457127162386" y2="5" style="visibility: inherit;" fill="rgb(0, 0, 0)" stroke="rgb(204, 204, 204)" stroke-width="1px"></line><line x1="611.6807140895298" y1="0" x2="611.6807140895298" y2="5" style="visibility: inherit;" fill="rgb(0, 0, 0)" stroke="rgb(204, 204, 204)" stroke-width="1px"></line><line x1="734.0168569074358" y1="0" x2="734.0168569074358" y2="5" style="visibility: inherit;" fill="rgb(0, 0, 0)" stroke="rgb(204, 204, 204)" stroke-width="1px"></line><line x1="856.3529997253418" y1="0" x2="856.3529997253418" y2="5" style="visibility: inherit;" fill="rgb(0, 0, 0)" stroke="rgb(204, 204, 204)" stroke-width="1px"></line><line x1="978.6891425432477" y1="0" x2="978.6891425432477" y2="5" style="visibility: inherit;" fill="rgb(0, 0, 0)" stroke="rgb(204, 204, 204)" stroke-width="1px"></line><line x1="1101.0252853611537" y1="0" x2="1101.0252853611537" y2="5" style="visibility: inherit;" fill="rgb(0, 0, 0)" stroke="rgb(204, 204, 204)" stroke-width="1px"></line><line x1="1223.3614281790597" y1="0" x2="1223.3614281790597" y2="5" style="visibility: inherit;" fill="rgb(0, 0, 0)" stroke="rgb(204, 204, 204)" stroke-width="1px"></line><line x1="1345.6975709969656" y1="0" x2="1345.6975709969656" y2="5" style="visibility: inherit;" fill="rgb(0, 0, 0)" stroke="rgb(204, 204, 204)" stroke-width="1px"></line><line x1="1468.0337138148716" y1="0" x2="1468.0337138148716" y2="5" style="visibility: inherit;" fill="rgb(0, 0, 0)" stroke="rgb(204, 204, 204)" stroke-width="1px"></line><line x1="1590.3698566327776" y1="0" x2="1590.3698566327776" y2="5" style="visibility: inherit;" fill="rgb(0, 0, 0)" stroke="rgb(204, 204, 204)" stroke-width="1px"></line><line x1="1712.7059994506835" y1="0" x2="1712.7059994506835" y2="5" style="visibility: inherit;" fill="rgb(0, 0, 0)" stroke="rgb(204, 204, 204)" stroke-width="1px"></line></g><g transform="translate(0, 8)"><text style="text-anchor: middle; visibility: hidden; font-family: Roboto, sans-serif; font-size: 12px; font-weight: 200;" x="0" y="0" dx="0em" dy="0.95em" fill="rgb(33, 33, 33)" stroke="none" stroke-width="1px">-2M</text><text style="text-anchor: middle; visibility: inherit; font-family: Roboto, sans-serif; font-size: 12px; font-weight: 200;" x="122.33614281790597" y="0" dx="0em" dy="0.95em" fill="rgb(33, 33, 33)" stroke="none" stroke-width="1px">0</text><text style="text-anchor: middle; visibility: inherit; font-family: Roboto, sans-serif; font-size: 12px; font-weight: 200;" x="244.67228563581193" y="0" dx="0em" dy="0.95em" fill="rgb(33, 33, 33)" stroke="none" stroke-width="1px">2M</text><text style="text-anchor: middle; visibility: inherit; font-family: Roboto, sans-serif; font-size: 12px; font-weight: 200;" x="367.0084284537179" y="0" dx="0em" dy="0.95em" fill="rgb(33, 33, 33)" stroke="none" stroke-width="1px">4M</text><text style="text-anchor: middle; visibility: inherit; font-family: Roboto, sans-serif; font-size: 12px; font-weight: 200;" x="489.34457127162386" y="0" dx="0em" dy="0.95em" fill="rgb(33, 33, 33)" stroke="none" stroke-width="1px">6M</text><text style="text-anchor: middle; visibility: inherit; font-family: Roboto, sans-serif; font-size: 12px; font-weight: 200;" x="611.6807140895298" y="0" dx="0em" dy="0.95em" fill="rgb(33, 33, 33)" stroke="none" stroke-width="1px">8M</text><text style="text-anchor: middle; visibility: inherit; font-family: Roboto, sans-serif; font-size: 12px; font-weight: 200;" x="734.0168569074358" y="0" dx="0em" dy="0.95em" fill="rgb(33, 33, 33)" stroke="none" stroke-width="1px">10M</text><text style="text-anchor: middle; visibility: inherit; font-family: Roboto, sans-serif; font-size: 12px; font-weight: 200;" x="856.3529997253418" y="0" dx="0em" dy="0.95em" fill="rgb(33, 33, 33)" stroke="none" stroke-width="1px">12M</text><text style="text-anchor: middle; visibility: inherit; font-family: Roboto, sans-serif; font-size: 12px; font-weight: 200;" x="978.6891425432477" y="0" dx="0em" dy="0.95em" fill="rgb(33, 33, 33)" stroke="none" stroke-width="1px">14M</text><text style="text-anchor: middle; visibility: inherit; font-family: Roboto, sans-serif; font-size: 12px; font-weight: 200;" x="1101.0252853611537" y="0" dx="0em" dy="0.95em" fill="rgb(33, 33, 33)" stroke="none" stroke-width="1px">16M</text><text style="text-anchor: middle; visibility: inherit; font-family: Roboto, sans-serif; font-size: 12px; font-weight: 200;" x="1223.3614281790597" y="0" dx="0em" dy="0.95em" fill="rgb(33, 33, 33)" stroke="none" stroke-width="1px">18M</text><text style="text-anchor: middle; visibility: inherit; font-family: Roboto, sans-serif; font-size: 12px; font-weight: 200;" x="1345.6975709969656" y="0" dx="0em" dy="0.95em" fill="rgb(33, 33, 33)" stroke="none" stroke-width="1px">20M</text><text style="text-anchor: middle; visibility: inherit; font-family: Roboto, sans-serif; font-size: 12px; font-weight: 200;" x="1468.0337138148716" y="0" dx="0em" dy="0.95em" fill="rgb(33, 33, 33)" stroke="none" stroke-width="1px">22M</text><text style="text-anchor: middle; visibility: inherit; font-family: Roboto, sans-serif; font-size: 12px; font-weight: 200;" x="1590.3698566327776" y="0" dx="0em" dy="0.95em" fill="rgb(33, 33, 33)" stroke="none" stroke-width="1px">24M</text><text style="text-anchor: middle; visibility: hidden; font-family: Roboto, sans-serif; font-size: 12px; font-weight: 200;" x="1712.7059994506835" y="0" dx="0em" dy="0.95em" fill="rgb(33, 33, 33)" stroke="none" stroke-width="1px">26M</text></g><line x1="0" y1="0" x2="1712.7059994506835" y2="0" fill="rgb(0, 0, 0)" stroke="rgb(204, 204, 204)" stroke-width="1px"></line></g></g></g></g></svg>